<?xml version="1.0" encoding="UTF-8"?>
<svg xmlns="http://www.w3.org/2000/svg" viewBox="0 0 640 400" width="640" height="400">
  <defs>
    <linearGradient id="bg-smart-bot" x1="0%" y1="0%" x2="100%" y2="100%">
      <stop offset="0%" stop-color="rgb(153,220,211)"/>
      <stop offset="45%" stop-color="rgb(214,242,237)"/>
      <stop offset="100%" stop-color="#f8fafc"/>
    </linearGradient>
    <filter id="shadow" x="-10%" y="-10%" width="120%" height="130%">
      <feDropShadow dx="0" dy="4" stdDeviation="8" flood-color="#0f172a" flood-opacity="0.12"/>
    </filter>
  </defs>
  <rect width="640" height="400" fill="url(#bg-smart-bot)"/>
  <circle cx="520" cy="80" r="90" fill="#0F766E" opacity="0.08"/>
  <circle cx="100" cy="320" r="70" fill="#0F766E" opacity="0.06"/>
  <g filter="url(#shadow)">
    <rect x="180" y="90" width="280" height="200" rx="16" fill="#fff"/>
    <rect x="180" y="90" width="280" height="44" rx="16" fill="#0F766E"/>
    <rect x="180" y="118" width="280" height="16" fill="#0F766E"/>
    <circle cx="210" cy="112" r="12" fill="#fff" opacity="0.25"/>
    <rect x="232" y="104" width="90" height="10" rx="5" fill="#fff" opacity="0.9"/>
    <rect x="232" y="118" width="60" height="7" rx="3" fill="#fff" opacity="0.55"/>
    <rect x="210" y="155" width="140" height="28" rx="14" fill="#F1F5F9"/>
    <rect x="290" y="195" width="130" height="28" rx="14" fill="#0F766E" opacity="0.9"/>
    <rect x="210" y="235" width="100" height="22" rx="11" fill="#E2E8F0"/>
    <rect x="320" y="235" width="100" height="22" rx="11" fill="#CCFBF1"/>
  </g>
  <g filter="url(#shadow)">
    <rect x="430" y="280" width="130" height="44" rx="22" fill="#0F766E"/>
    <circle cx="454" cy="302" r="12" fill="#fff" opacity="0.25"/>
    <rect x="474" y="295" width="66" height="10" rx="5" fill="#fff"/>
  </g>
</svg>
